<svg width="60" height="61" viewBox="0 0 60 61" fill="none" xmlns="http://www.w3.org/2000/svg">
<g opacity="0.4">
<path fill-rule="evenodd" clip-rule="evenodd" d="M30 60.9148C46.5685 60.9148 60 47.4833 60 30.9148C60 14.3463 46.5685 0.914795 30 0.914795C13.4315 0.914795 0 14.3463 0 30.9148C0 47.4833 13.4315 60.9148 30 60.9148ZM25.3052 30.9148L32.7203 38.2927C33.0932 38.6638 33.0932 39.2654 32.7203 39.6365C32.3474 40.0076 31.7429 40.0076 31.37 39.6365L23.2797 31.5867C22.9068 31.2156 22.9068 30.614 23.2797 30.2429L31.37 22.1931C31.7429 21.822 32.3474 21.822 32.7203 22.1931C33.0932 22.5642 33.0932 23.1658 32.7203 23.5369L25.3052 30.9148Z" fill="white"/>
</g>
</svg>
