<svg width="60" height="61" viewBox="0 0 60 61" fill="none" xmlns="http://www.w3.org/2000/svg">
<g opacity="0.4">
<path fill-rule="evenodd" clip-rule="evenodd" d="M30 60.9148C13.4315 60.9148 0 47.4833 0 30.9148C0 14.3463 13.4315 0.914795 30 0.914795C46.5685 0.914795 60 14.3463 60 30.9148C60 47.4833 46.5685 60.9148 30 60.9148ZM34.6948 30.9148L27.2797 38.2927C26.9068 38.6638 26.9068 39.2654 27.2797 39.6365C27.6526 40.0076 28.2571 40.0076 28.63 39.6365L36.7203 31.5867C37.0932 31.2156 37.0932 30.614 36.7203 30.2429L28.63 22.1931C28.2571 21.822 27.6526 21.822 27.2797 22.1931C26.9068 22.5642 26.9068 23.1658 27.2797 23.5369L34.6948 30.9148Z" fill="white"/>
</g>
</svg>
