<svg width="10" height="19" viewBox="0 0 10 19" fill="none" xmlns="http://www.w3.org/2000/svg">
<path fill-rule="evenodd" clip-rule="evenodd" d="M9.62416 0.259238L7.22562 0.255493C4.53093 0.255493 2.78951 1.9942 2.78951 4.68532V6.72776H0.37788C0.169487 6.72776 0.000732422 6.89218 0.000732422 7.09498V10.0543C0.000732422 10.2571 0.169679 10.4213 0.37788 10.4213H2.78951V17.8885C2.78951 18.0913 2.95826 18.2555 3.16666 18.2555H6.31315C6.52154 18.2555 6.6903 18.0911 6.6903 17.8885V10.4213H9.51006C9.71845 10.4213 9.8872 10.2571 9.8872 10.0543L9.88836 7.09498C9.88836 6.9976 9.84853 6.90435 9.77791 6.83544C9.70729 6.76653 9.61108 6.72776 9.51102 6.72776H6.6903V4.99636C6.6903 4.16417 6.89407 3.74171 8.00801 3.74171L9.62378 3.74115C9.83198 3.74115 10.0007 3.57674 10.0007 3.37412V0.626268C10.0007 0.42384 9.83217 0.259613 9.62416 0.259238Z" fill="white"/>
</svg>
