<svg width="18" height="18" viewBox="0 0 18 18" fill="none" xmlns="http://www.w3.org/2000/svg">
<path fill-rule="evenodd" clip-rule="evenodd" d="M9.00075 0.755493C11.3092 0.755493 11.5987 0.765278 12.5053 0.806644C13.41 0.847909 14.0279 0.991611 14.5686 1.20175C15.1275 1.41894 15.6015 1.70958 16.0741 2.18212C16.5466 2.6547 16.8373 3.12872 17.0545 3.68767C17.2646 4.22833 17.4083 4.84623 17.4496 5.75095C17.4909 6.65757 17.5007 6.94703 17.5007 9.25551C17.5007 11.564 17.4909 11.8534 17.4496 12.76C17.4083 13.6648 17.2646 14.2827 17.0545 14.8233C16.8373 15.3823 16.5466 15.8563 16.0741 16.3289C15.6015 16.8014 15.1275 17.092 14.5686 17.3093C14.0279 17.5194 13.41 17.6631 12.5053 17.7043C11.5987 17.7457 11.3092 17.7555 9.00075 17.7555C6.69227 17.7555 6.40281 17.7457 5.49619 17.7043C4.59147 17.6631 3.97357 17.5194 3.43291 17.3093C2.87396 17.092 2.39993 16.8014 1.92736 16.3289C1.45482 15.8563 1.16418 15.3823 0.946988 14.8233C0.736851 14.2827 0.593148 13.6648 0.551883 12.76C0.510517 11.8534 0.500732 11.564 0.500732 9.25551C0.500732 6.94703 0.510517 6.65757 0.551883 5.75095C0.593148 4.84623 0.736851 4.22833 0.946988 3.68767C1.16418 3.12872 1.45482 2.6547 1.92736 2.18212C2.39993 1.70958 2.87396 1.41894 3.43291 1.20175C3.97357 0.991611 4.59147 0.847909 5.49619 0.806644C6.40281 0.765278 6.69227 0.755493 9.00075 0.755493ZM8.99807 12.0853C10.5624 12.0853 11.8305 10.8171 11.8305 9.25283C11.8305 7.68849 10.5624 6.42037 8.99807 6.42037C7.43373 6.42037 6.16561 7.68849 6.16561 9.25283C6.16561 10.8171 7.43373 12.0853 8.99807 12.0853ZM8.99807 4.88933C11.408 4.88933 13.3615 6.84291 13.3615 9.25283C13.3615 11.6627 11.408 13.6163 8.99807 13.6163C6.58815 13.6163 4.63457 11.6627 4.63457 9.25283C4.63457 6.84291 6.58815 4.88933 8.99807 4.88933ZM14.8563 4.62773C14.8563 5.2015 14.3911 5.6666 13.8174 5.6666C13.2436 5.6666 12.7785 5.2015 12.7785 4.62773C12.7785 4.05396 13.2436 3.58883 13.8174 3.58883C14.3911 3.58883 14.8563 4.05396 14.8563 4.62773Z" fill="white"/>
</svg>
