<svg width="40" height="41" viewBox="0 0 40 41" fill="none" xmlns="http://www.w3.org/2000/svg">
<path opacity="0.5" d="M20.0007 0.755493C30.7703 0.755493 39.5007 9.48594 39.5007 20.2555C39.5007 31.025 30.7703 39.7555 20.0007 39.7555C9.23118 39.7555 0.500732 31.025 0.500732 20.2555C0.500732 9.48594 9.23118 0.755493 20.0007 0.755493Z" stroke="#D8BFFF"/>
<path fill-rule="evenodd" clip-rule="evenodd" d="M20.0007 18.4081L16.3118 22.1157C16.1262 22.3021 15.8254 22.3021 15.6399 22.1157C15.4543 21.9292 15.4543 21.6269 15.6399 21.4405L19.6648 17.3953C19.8503 17.2089 20.1511 17.2089 20.3367 17.3953L24.3616 21.4405C24.5471 21.6269 24.5471 21.9292 24.3616 22.1157C24.176 22.3021 23.8752 22.3021 23.6897 22.1157L20.0007 18.4081Z" fill="white"/>
</svg>
