<svg width="18" height="16" viewBox="0 0 18 16" fill="none" xmlns="http://www.w3.org/2000/svg">
<path fill-rule="evenodd" clip-rule="evenodd" d="M17.9797 2.61836C17.9539 2.58766 17.9113 2.57723 17.875 2.59398C17.3369 2.83497 16.7707 3.00823 16.1876 3.11058C16.8067 2.64051 17.2679 1.98955 17.5044 1.24313C17.5159 1.2074 17.5041 1.16832 17.4751 1.14506C17.446 1.1218 17.4056 1.11882 17.3737 1.13799C16.6765 1.5554 15.9214 1.84961 15.1283 2.01281C14.4255 1.27663 13.4442 0.855499 12.4286 0.855499C10.3631 0.855499 8.68284 2.55155 8.68284 4.63636C8.68284 4.88851 8.70699 5.13825 8.75492 5.38073C5.89409 5.20245 3.21909 3.81606 1.40023 1.56414C1.38161 1.54107 1.35341 1.52823 1.32391 1.5312C1.2946 1.53344 1.26842 1.55019 1.25367 1.57568C0.921831 2.15034 0.746509 2.8078 0.746509 3.47662C0.746509 4.6358 1.26824 5.71961 2.15665 6.43476C1.69926 6.37931 1.25257 6.23397 0.849748 6.00824C0.822648 5.99279 0.788911 5.99298 0.761811 6.00879C0.73471 6.02443 0.717565 6.05346 0.716828 6.08509L0.716459 6.13348C0.716459 7.79827 1.80324 9.26003 3.34943 9.74536C2.94219 9.81161 2.51964 9.80715 2.10429 9.72713C2.07369 9.72136 2.04161 9.73196 2.02059 9.75578C1.99976 9.7796 1.99275 9.81291 2.00234 9.84306C2.46599 11.3039 3.75427 12.3283 5.25382 12.456C4.00297 13.3811 2.52444 13.8684 0.962205 13.8684C0.674426 13.8684 0.384619 13.8511 0.100711 13.8175C0.0601528 13.8128 0.0199633 13.8372 0.00595223 13.8764C-0.0080588 13.9161 0.00687401 13.9604 0.0419016 13.9829C1.73244 15.0773 3.68717 15.6555 5.69499 15.6555C12.2627 15.6555 16.1872 10.2703 16.1872 5.06419C16.1872 4.91922 16.1845 4.775 16.1787 4.63115C16.8872 4.10804 17.4954 3.46769 17.9858 2.72648C18.0077 2.69336 18.0053 2.64925 17.9797 2.61836Z" fill="white"/>
</svg>
